<?xml version="1.0" standalone="no"?>
<svg xmlns="http://www.w3.org/2000/svg" viewBox="0 0 140.16 29" width="140.16" height="29"><g fill="#fff8f9" color="#fff8f9" transform="translate(0, 0) scale(0.29)"><svg width="100.0" height="100.0" x="0.0" y="0.0" viewBox="0 0 100 100"><g><path fill="currentColor" d="M43.1,49.6c-11.6-1.5-24.9-3.2-28.4-3.4c-1.4,3.1-6.2,14.3-6.1,21.4c5.2,12.3,16,21.9,28.8,25.6   c7.7-4,16.6-12.7,19.1-15.2C52.5,71.4,44.9,53.9,43.1,49.6z"></path><path fill="currentColor" d="M41.4,94.1c2.9,0.6,5.7,0.8,8.6,0.8c16.7,0,31.9-9.2,39.7-23.9c-12.3,7.7-27.3,8.5-30.9,8.6   C56.9,81.6,49.1,89.3,41.4,94.1z"></path><path fill="currentColor" d="M43,46.7c2.6-7,16.8-21.8,20.5-25.6C57.2,9.6,49,5.8,47.1,5.1c-13,0.8-24.9,7.3-32.9,17.7   c-0.7,4.8,0,17.4,0.5,20.6C18.8,43.6,32.1,45.3,43,46.7z"></path><path fill="currentColor" d="M11.1,27.4C7.1,34.2,5,42,5,49.9c0,3.8,0.5,7.6,1.4,11.3c1.5-7,4.8-14.5,5.7-16.6   C11.4,41.9,11,33.3,11.1,27.4z"></path><path fill="currentColor" d="M65.7,22.9c-7.6,7.7-18.9,20.5-20.2,25.2c1.3,3,9.6,22.2,13.5,28.6c3.7-0.1,18.1-1.1,29.5-8.3   c0.5-3.1,3.4-21.2,0-31C87.1,35.7,77.2,25.2,65.7,22.9z"></path><path fill="currentColor" d="M95,49.9c0-5.6-1-11-3-16.1l-0.7,2.7c3.1,9.2,1.3,24.1,0.4,30.3C93.9,61.4,95,55.8,95,49.9z"></path><path fill="currentColor" d="M66.2,20.1c10.3,2.1,18.9,9.7,22.9,13.7l1-4.1c-7.2-14.2-21.2-23.4-37-24.5C57.1,7.7,62,12.3,66.2,20.1z"></path></g></svg></g><line x1="41" y1="1" x2="41" y2="28" stroke="#eff7f7" stroke-linecap="round"></line><path fill="#eff7f7" fill-rule="nonzero" d="M4.01 20.74L0 20.74L1.99 0.12L8.98 0.12L10.94 20.74L7.03 20.74L6.74 17.40L4.25 17.40L4.01 20.74ZM5.33 3.62L4.56 14.11L6.43 14.11L5.52 3.62L5.33 3.62ZM16.39 20.74L12.12 20.74L12.12 0L16.39 0L16.39 20.74ZM21.70 20.93Q20.04 20.93 19.42 20.23Q18.79 19.54 18.79 18L18.79 18L18.79 7.03L17.62 7.03L17.62 3.84L18.79 3.84L18.79 0.12L22.87 0.12L22.87 3.84L24.07 3.84L24.07 7.03L22.87 7.03L22.87 16.90Q22.87 17.35 22.94 17.57Q23.02 17.78 23.33 17.78L23.33 17.78Q23.57 17.78 23.78 17.76Q24 17.74 24.07 17.74L24.07 17.74L24.07 20.62Q23.71 20.71 23.03 20.82Q22.34 20.93 21.70 20.93L21.70 20.93ZM30.50 20.93Q25.25 20.93 25.25 15.48L25.25 15.48L25.25 8.42Q25.25 5.93 26.65 4.45Q28.06 2.98 30.50 2.98L30.50 2.98Q32.95 2.98 34.36 4.45Q35.76 5.93 35.76 8.42L35.76 8.42L35.76 15.48Q35.76 20.93 30.50 20.93L30.50 20.93ZM30.50 17.69Q31.01 17.69 31.25 17.33Q31.49 16.97 31.49 16.34L31.49 16.34L31.49 7.75Q31.49 6.22 30.50 6.22L30.50 6.22Q29.52 6.22 29.52 7.75L29.52 7.75L29.52 16.34Q29.52 16.97 29.76 17.33Q30 17.69 30.50 17.69L30.50 17.69ZM47.04 20.74L43.01 20.74L43.01 0.12L47.26 0.12L49.15 9.98L49.15 0.12L53.14 0.12L53.14 20.74L49.10 20.74L47.04 10.42L47.04 20.74ZM60 20.93Q54.74 20.93 54.74 15.48L54.74 15.48L54.74 8.42Q54.74 5.93 56.15 4.45Q57.55 2.98 60 2.98L60 2.98Q62.45 2.98 63.85 4.45Q65.26 5.93 65.26 8.42L65.26 8.42L65.26 15.48Q65.26 20.93 60 20.93L60 20.93ZM60 17.69Q60.50 17.69 60.74 17.33Q60.98 16.97 60.98 16.34L60.98 16.34L60.98 7.75Q60.98 6.22 60 6.22L60 6.22Q59.02 6.22 59.02 7.75L59.02 7.75L59.02 16.34Q59.02 16.97 59.26 17.33Q59.50 17.69 60 17.69L60 17.69ZM66.82 20.74L66.82 3.17L71.02 3.17L71.02 5.40Q71.28 4.32 71.93 3.65Q72.58 2.98 73.66 2.98L73.66 2.98Q75.43 2.98 76.28 4.07Q77.14 5.16 77.14 7.18L77.14 7.18L77.14 20.74L73.01 20.74L73.01 7.61Q73.01 7.03 72.78 6.62Q72.55 6.22 72.07 6.22L72.07 6.22Q71.42 6.22 71.22 6.80Q71.02 7.39 71.02 8.38L71.02 8.38L71.02 20.74L66.82 20.74ZM83.90 20.93Q78.65 20.93 78.65 15.48L78.65 15.48L78.65 8.42Q78.65 5.93 80.05 4.45Q81.46 2.98 83.90 2.98L83.90 2.98Q86.35 2.98 87.76 4.45Q89.16 5.93 89.16 8.42L89.16 8.42L89.16 15.48Q89.16 20.93 83.90 20.93L83.90 20.93ZM83.90 17.69Q84.41 17.69 84.65 17.33Q84.89 16.97 84.89 16.34L84.89 16.34L84.89 7.75Q84.89 6.22 83.90 6.22L83.90 6.22Q82.92 6.22 82.92 7.75L82.92 7.75L82.92 16.34Q82.92 16.97 83.16 17.33Q83.40 17.69 83.90 17.69L83.90 17.69Z" transform="translate(51, 4.132)"></path></svg>